<?xml version="1.0" encoding="utf-8"?>
<!-- Generator: Adobe Illustrator 16.0.0, SVG Export Plug-In . SVG Version: 6.00 Build 0)  -->
<!DOCTYPE svg PUBLIC "-//W3C//DTD SVG 1.1//EN" "http://www.w3.org/Graphics/SVG/1.1/DTD/svg11.dtd">
<svg version="1.1" id="Layer_1" xmlns="http://www.w3.org/2000/svg" xmlns:xlink="http://www.w3.org/1999/xlink" x="0px" y="0px"
	 width="509.864px" height="166.899px" viewBox="0 0 509.864 166.899" enable-background="new 0 0 509.864 166.899"
	 xml:space="preserve">
<path fill="#1C1C1B" d="M60.545,13.224c-11.946,2.714-22.263,13.576-15.749,29.593C50.77,58.021,83.08,61.55,103.984,70.781
	c20.633,9.231,28.507,21.449,31.221,33.395c2.986,11.401,0,40.183-24.706,52.942c-27.419,14.388-65.157,9.229-79.004,6.786
	c-11.132-1.9-21.99-4.345-31.494-7.872v-46.698h4.888L33.665,148.7c8.96,3.259,17.105,5.432,27.693,5.432
	c10.861,0,30.408-3.259,29.593-22.807c-0.542-14.117-17.103-23.078-36.923-29.865C41.54,97.388,5.702,90.6,1.63,57.478
	C-3.257,20.554,30.953,1.821,63.803,0.192c23.891-1.087,44.253,2.442,62.17,10.317v43.439h-4.885L96.924,19.74
	C89.051,13.767,74.12,10.237,60.545,13.224z"/>
<path fill="#1C1C1B" d="M238.644,166.891c-59.186,0.543-86.063-28.235-86.879-81.721c-0.815-50.226,32.58-83.349,85.249-84.978
	c57.016-1.63,86.878,30.136,86.878,79.005C323.892,138.926,291.042,166.347,238.644,166.891z M266.88,85.17
	c0-35.566-5.702-72.49-31.223-71.947c-26.336,0.543-29.593,37.195-27.693,77.376c1.627,34.75,8.146,63.531,30.679,63.531
	C265.25,154.131,266.88,122.909,266.88,85.17z"/>
<path fill="#1C1C1B" d="M424.615,166.891c-59.186,0.543-86.063-28.235-86.878-81.721c-0.815-50.226,32.579-83.349,85.249-84.978
	c57.015-1.63,86.878,30.136,86.878,79.005C509.864,138.926,477.014,166.347,424.615,166.891z M452.852,85.17
	c0-35.566-5.701-72.49-31.222-71.947c-26.337,0.543-29.594,37.195-27.694,77.376c1.629,34.75,8.146,63.531,30.68,63.531
	C451.222,154.131,452.852,122.909,452.852,85.17z"/>
</svg>
