<?xml version="1.0" encoding="utf-8"?>
<!-- Generator: Adobe Illustrator 16.0.0, SVG Export Plug-In . SVG Version: 6.00 Build 0)  -->
<!DOCTYPE svg PUBLIC "-//W3C//DTD SVG 1.1//EN" "http://www.w3.org/Graphics/SVG/1.1/DTD/svg11.dtd">
<svg version="1.1" id="Layer_1" xmlns="http://www.w3.org/2000/svg" xmlns:xlink="http://www.w3.org/1999/xlink" x="0px" y="0px"
	 width="594.689px" height="141.319px" viewBox="0 0 594.689 141.319" enable-background="new 0 0 594.689 141.319"
	 xml:space="preserve">
<g>
	<path fill="#E84C4C" d="M277.787,0c7.268,0,13.347,6.08,13.347,13.348s-6.079,13.348-13.347,13.348
		c-7.269,0-13.348-6.079-13.348-13.348S270.518,0,277.787,0z"/>
	<path fill="#1C1C1B" d="M29.471,42.731c-5.815,1.321-10.837,6.608-7.666,14.405c2.908,7.401,18.635,9.119,28.81,13.612
		c10.044,4.494,13.877,10.441,15.197,16.254c1.454,5.551,0,19.56-12.025,25.771c-13.347,7.004-31.716,4.492-38.457,3.303
		c-5.418-0.925-10.704-2.114-15.33-3.832v-22.73h2.379l14.008,19.162c4.361,1.586,8.326,2.644,13.48,2.644
		c5.287,0,14.801-1.586,14.405-11.102c-0.264-6.871-8.325-11.232-17.973-14.537C20.22,83.7,2.775,80.396,0.793,64.273
		c-2.379-17.974,14.273-27.092,30.264-27.885c11.629-0.529,21.541,1.189,30.263,5.022v21.145h-2.378L47.179,45.903
		C43.347,42.996,36.079,41.277,29.471,42.731z"/>
	<path fill="#1C1C1B" d="M116.164,117.531c-28.81,0.265-41.893-13.744-42.29-39.778c-0.397-24.449,15.859-40.572,41.496-41.365
		c27.753-0.793,42.29,14.669,42.29,38.457C157.66,103.919,141.669,117.267,116.164,117.531z M129.908,77.753
		c0-17.313-2.776-35.286-15.198-35.021c-12.819,0.264-14.405,18.105-13.479,37.664c0.792,16.916,3.964,30.925,14.933,30.925
		C129.115,111.32,129.908,96.123,129.908,77.753z"/>
	<path fill="#1C1C1B" d="M206.689,117.531c-28.811,0.265-41.894-13.744-42.29-39.778c-0.396-24.449,15.859-40.572,41.496-41.365
		c27.753-0.793,42.29,14.669,42.29,38.457C248.185,103.919,232.195,117.267,206.689,117.531z M220.434,77.753
		c0-17.313-2.776-35.286-15.199-35.021c-12.82,0.264-14.405,18.105-13.48,37.664c0.792,16.916,3.965,30.925,14.934,30.925
		C219.64,111.32,220.434,96.123,220.434,77.753z"/>
	<path fill="#1C1C1B" d="M291.529,36.388v59.47c0,21.408-16.651,35.152-30.791,43.346l-3.701-2.774
		c5.287-8.063,9.648-18.369,9.648-40.704V49.604h-10.574v-4.361l32.114-8.854H291.529z"/>
	<path fill="#1C1C1B" d="M310.958,50.132h-10.572v-4.229l32.378-9.251h2.643v57.752c0,10.309,4.625,14.536,13.083,14.536
		c6.872,0,12.291-3.832,14.404-8.457V49.735h-10.439v-4.229l32.246-9.25h2.511v72.949l10.705,3.701v2.907h-30.792l-3.437-8.326
		c-4.625,5.947-12.422,10.044-24.713,10.044c-17.18,0-28.017-7.665-28.017-22.202V50.132z"/>
	<path fill="#1C1C1B" d="M463.066,108.94V59.119c0-11.102-6.739-14.537-13.349-14.537c-5.417,0-11.363,3.568-13.876,8.193v56.166
		l9.252,3.966v2.907h-42.818v-2.907l8.985-3.966V50h-12.29v-4.494l28.943-7.533h3.831l3.305,8.326
		c5.021-5.55,13.745-10.043,24.316-10.043c17.048,0,27.885,9.383,27.885,21.277v51.407l8.723,3.966v2.907h-41.762v-2.907
		L463.066,108.94z"/>
	<path fill="#1C1C1B" d="M571.563,46.829c3.17,3.7,5.021,8.061,5.021,13.347c0,15.066-14.802,23.656-36.607,23.656
		c-2.643,0-5.022,0-7.401-0.265l-6.342,5.419c13.875,1.982,28.677,4.096,39.646,7.137c14.536,3.964,20.22,11.232,19.824,21.54
		c-0.795,17.313-25.375,23.656-43.613,23.656c-18.501,0-43.743-2.115-43.743-18.237c0-10.837,12.688-15.99,25.11-18.238
		l-13.611-2.378c-1.059-0.132-1.719-0.528-2.248-1.189c-1.981-2.907-2.643-6.607-2.511-8.458l19.295-10.705
		c-12.95-3.304-20.88-10.836-20.88-21.938c0-15.198,14.669-23.788,36.475-23.788c11.762,0,21.408,2.511,27.885,7.269
		c3.965-3.172,8.193-5.418,12.951-6.608c3.039-0.792,7.797-0.924,10.177-0.131c2.774,0.924,3.699,2.511,3.699,4.889
		c0,4.758-1.982,9.647-5.947,13.745C583.853,52.246,577.773,48.942,571.563,46.829z M529.272,105.902
		c-4.492,3.171-7.533,9.779-6.74,15.726c1.058,7.666,8.987,12.951,19.295,12.951c11.101,0,18.634-5.683,18.634-12.951
		c0-8.062-5.285-11.101-14.669-12.688L529.272,105.902z M550.683,60.176c0-10.969-3.569-17.444-10.705-17.444
		c-7.004,0-10.573,6.476-10.573,17.444c0,12.026,3.569,17.444,10.573,17.444C547.113,77.62,550.683,72.202,550.683,60.176z"/>
</g>
</svg>
